<?xml version="1.0" encoding="utf-8"?>
<!-- Generator: Adobe Adobe Illustrator 24.2.0, SVG Export Plug-In . SVG Version: 6.00 Build 0)  -->
<svg version="1.1" id="Layer_1" xmlns="http://www.w3.org/2000/svg" xmlns:xlink="http://www.w3.org/1999/xlink" x="0px" y="0px"
	 width="512px" height="512px" viewBox="0 0 512 512"  xml:space="preserve">
<style type="text/css">
	.st0{fill:#0A1930;stroke:#000000;stroke-miterlimit:10;}
	.st1{fill:none;stroke:#0A1930;stroke-width:4;stroke-miterlimit:10;}
	.st2{fill:none;stroke:#0A1930;stroke-width:4;stroke-linecap:round;stroke-linejoin:round;stroke-miterlimit:10;}
	.st3{fill:none;stroke:#0A1930;stroke-width:7;stroke-miterlimit:10;}
	.st4{fill:none;stroke:#0A1930;stroke-width:7;stroke-linecap:round;stroke-linejoin:round;stroke-miterlimit:10;}
	.st5{fill:none;stroke:#0A1930;stroke-width:7;stroke-linecap:round;stroke-miterlimit:10;}
	.st6{fill:none;stroke:#10100F;stroke-width:16;stroke-linecap:round;stroke-miterlimit:10;}
	.st7{fill:none;stroke:#10100F;stroke-width:16;stroke-miterlimit:10;}
	.st8{fill:none;stroke:#10100F;stroke-width:16;stroke-linecap:round;stroke-linejoin:round;stroke-miterlimit:10;}
	.st9{fill:none;stroke:#000000;stroke-width:7;stroke-miterlimit:10;}
	.st10{fill:none;stroke:#000000;stroke-width:7;stroke-linecap:round;stroke-miterlimit:10;}
	.st11{fill:none;stroke:#000000;stroke-width:16;stroke-miterlimit:10;}
	.st12{fill:none;stroke:#000000;stroke-width:16;stroke-linecap:round;stroke-miterlimit:10;}
	.st13{fill:none;stroke:#000000;stroke-width:6;stroke-miterlimit:10;}
	.st14{fill:none;stroke:#000000;stroke-width:16;stroke-linejoin:round;stroke-miterlimit:10;}
	.st15{stroke:#000000;stroke-width:16;stroke-linejoin:round;stroke-miterlimit:10;}
	.st16{fill:#FFFFFF;stroke:#000000;stroke-width:16;stroke-linejoin:round;stroke-miterlimit:10;}
	.st17{fill:none;stroke:#0A1930;stroke-width:16;stroke-linecap:round;stroke-linejoin:round;stroke-miterlimit:10;}
	.st18{fill:none;stroke:#000000;stroke-width:25;stroke-linecap:round;stroke-linejoin:round;stroke-miterlimit:10;}
	.st19{fill:#FFFFFF;stroke:#FFFFFF;stroke-width:5;stroke-linecap:round;stroke-linejoin:round;stroke-miterlimit:10;}
	.st20{stroke:#000000;stroke-width:5;stroke-linecap:round;stroke-linejoin:round;stroke-miterlimit:10;}
</style>
<path class="st6" d="M143.6,55.07l284,0c19.81,0,35.87,16.06,35.87,35.87l0,284"/>
<path class="st7" d="M435.84,438.74l-309.82,0c-21.61,0-39.13-17.52-39.13-39.13l0-309.82"/>
<path class="st8" d="M125.26,135.91l-34.38-49.1c-1.94-2.77-6.03-2.77-7.97,0l-34.38,49.1"/>
<path class="st8" d="M390.02,477.12l49.49-33.81c2.79-1.9,2.84-6,0.09-7.97l-48.7-34.94"/>
<g>
	<path d="M275.24,279.66v35.24c0,5.57-1.26,9.74-3.79,12.52c-2.52,2.78-5.86,4.17-10,4.17c-4.01,0-7.27-1.39-9.76-4.17
		c-2.49-2.78-3.74-6.96-3.74-12.52v-42.23c0-6.67-0.23-11.84-0.68-15.53c-0.45-3.69-1.68-6.71-3.69-9.08
		c-2.01-2.36-5.18-3.54-9.51-3.54c-8.67,0-14.38,2.98-17.14,8.93c-2.75,5.96-4.13,14.5-4.13,25.63v35.82c0,5.5-1.25,9.66-3.74,12.48
		c-2.49,2.82-5.78,4.22-9.85,4.22c-4.01,0-7.3-1.41-9.85-4.22c-2.56-2.82-3.83-6.97-3.83-12.48v-75.82c0-4.98,1.15-8.77,3.45-11.36
		c2.3-2.59,5.32-3.88,9.08-3.88c3.62,0,6.65,1.21,9.08,3.64c2.43,2.43,3.64,5.78,3.64,10.05v2.52c4.59-5.5,9.51-9.55,14.76-12.14
		c5.24-2.59,11.07-3.88,17.48-3.88c6.67,0,12.39,1.33,17.18,3.98c4.79,2.65,8.74,6.67,11.84,12.04c4.47-5.44,9.25-9.47,14.37-12.09
		c5.11-2.62,10.78-3.93,16.99-3.93c7.25,0,13.5,1.42,18.74,4.27c5.24,2.85,9.16,6.93,11.75,12.23c2.27,4.79,3.4,12.33,3.4,22.62
		v51.75c0,5.57-1.26,9.74-3.79,12.52c-2.52,2.78-5.86,4.17-10,4.17c-4.01,0-7.3-1.41-9.86-4.22s-3.83-6.97-3.83-12.48v-44.56
		c0-5.69-0.24-10.26-0.73-13.69c-0.48-3.43-1.79-6.31-3.93-8.64c-2.14-2.33-5.37-3.5-9.71-3.5c-3.5,0-6.81,1.04-9.95,3.11
		c-3.14,2.07-5.58,4.85-7.33,8.35C276.21,260.43,275.24,268.33,275.24,279.66z"/>
</g>
<g>
	<path d="M391.58,164.37c-1.38,3.5-3.39,6.69-6.02,9.58c-1.35,1.48-3.26,3.31-5.73,5.49c-2.47,2.18-5.09,4.38-7.85,6.6
		c-2.76,2.22-5.33,4.16-7.71,5.83h29.86v10.21h-47.39v-9.73c1.8-1.16,3.85-2.57,6.17-4.24c2.31-1.67,4.66-3.4,7.03-5.2
		c2.38-1.8,4.61-3.52,6.69-5.15s3.81-3.07,5.15-4.29c6.74-6.1,10.11-12.04,10.11-17.82c0-3.66-1.22-6.52-3.66-8.57
		c-2.44-2.05-5.75-3.08-9.92-3.08c-3.66,0-6.82,0.8-9.49,2.41c-2.67,1.61-4.61,3.79-5.83,6.55c-3.98-1.22-5.97-3.21-5.97-5.97
		c0-0.83,0.18-1.72,0.53-2.65c0.35-0.93,0.79-1.75,1.3-2.46c1.67-2.25,4.35-4.08,8.04-5.49c3.69-1.41,7.79-2.12,12.28-2.12
		c4.94,0,9.25,0.85,12.91,2.55c3.66,1.7,6.5,4.06,8.52,7.08c2.02,3.02,3.03,6.49,3.03,10.4
		C393.66,157.51,392.96,160.87,391.58,164.37z"/>
</g>
</svg>
