<?xml version="1.0" encoding="utf-8"?>
<!-- Generator: Adobe Adobe Illustrator 24.2.0, SVG Export Plug-In . SVG Version: 6.00 Build 0)  -->
<svg version="1.1" id="Layer_1" xmlns="http://www.w3.org/2000/svg" xmlns:xlink="http://www.w3.org/1999/xlink" x="0px" y="0px"
	 width="512px" height="512px" viewBox="0 0 512 512" style="enable-background:new 0 0 512 512;" xml:space="preserve">
<style type="text/css">
	.st0{fill:#0A1930;stroke:#000000;stroke-miterlimit:10;}
	.st1{fill:none;stroke:#0A1930;stroke-width:4;stroke-miterlimit:10;}
	.st2{fill:none;stroke:#0A1930;stroke-width:4;stroke-linecap:round;stroke-linejoin:round;stroke-miterlimit:10;}
	.st3{fill:none;stroke:#0A1930;stroke-width:7;stroke-miterlimit:10;}
	.st4{fill:none;stroke:#0A1930;stroke-width:7;stroke-linecap:round;stroke-linejoin:round;stroke-miterlimit:10;}
	.st5{fill:none;stroke:#0A1930;stroke-width:7;stroke-linecap:round;stroke-miterlimit:10;}
	.st6{fill:none;stroke:#10100F;stroke-width:16;stroke-linecap:round;stroke-miterlimit:10;}
	.st7{fill:none;stroke:#10100F;stroke-width:16;stroke-miterlimit:10;}
	.st8{fill:none;stroke:#10100F;stroke-width:16;stroke-linecap:round;stroke-linejoin:round;stroke-miterlimit:10;}
	.st9{fill:none;stroke:#000000;stroke-width:7;stroke-miterlimit:10;}
	.st10{fill:none;stroke:#000000;stroke-width:7;stroke-linecap:round;stroke-miterlimit:10;}
	.st11{fill:none;stroke:#000000;stroke-width:16;stroke-miterlimit:10;}
	.st12{fill:none;stroke:#000000;stroke-width:16;stroke-linecap:round;stroke-miterlimit:10;}
	.st13{fill:none;stroke:#000000;stroke-width:6;stroke-miterlimit:10;}
	.st14{fill:none;stroke:#000000;stroke-width:16;stroke-linejoin:round;stroke-miterlimit:10;}
	.st15{stroke:#000000;stroke-width:16;stroke-linejoin:round;stroke-miterlimit:10;}
	.st16{fill:#FFFFFF;stroke:#000000;stroke-width:16;stroke-linejoin:round;stroke-miterlimit:10;}
	.st17{fill:none;stroke:#0A1930;stroke-width:16;stroke-linecap:round;stroke-linejoin:round;stroke-miterlimit:10;}
	.st18{fill:none;stroke:#000000;stroke-width:25;stroke-linecap:round;stroke-linejoin:round;stroke-miterlimit:10;}
	.st19{fill:#FFFFFF;stroke:#FFFFFF;stroke-width:5;stroke-linecap:round;stroke-linejoin:round;stroke-miterlimit:10;}
	.st20{stroke:#000000;stroke-width:5;stroke-linecap:round;stroke-linejoin:round;stroke-miterlimit:10;}
</style>
<g>
	<g>
		<g>
			<path d="M364.25,266.27L256,179.24l-108.25,87.04c-3.38,2.72-1.46,8.18,2.88,8.18h27.79v81.74c0,10.8,8.75,19.55,19.55,19.55
				h23.75v-62.95c0-1.24,1-2.24,2.24-2.24h29.81c1.24,0,2.24,1,2.24,2.24v62.95h58.03c10.8,0,19.55-8.75,19.55-19.55v-81.74h27.79
				C365.71,274.45,367.64,268.99,364.25,266.27z"/>
		</g>
	</g>
	<path d="M325.61,193.09v38.32l-22.87-18.39v-19.93c0-1.76,1.43-3.19,3.19-3.19h16.49C324.18,189.9,325.61,191.33,325.61,193.09z"/>
</g>
<path class="st11" d="M58.78,449.53V81.9c0-7.4,6-13.4,13.4-13.4h367.63c7.4,0,13.4,6,13.4,13.4v367.63c0,7.4-6,13.4-13.4,13.4
	H72.18C64.78,462.93,58.78,456.93,58.78,449.53z"/>
<line class="st12" x1="118.17" y1="32.98" x2="118.17" y2="104.01"/>
<line class="st12" x1="256" y1="32.98" x2="256" y2="104.01"/>
<line class="st12" x1="323" y1="32.98" x2="323" y2="104.01"/>
<line class="st12" x1="187.09" y1="32.98" x2="187.09" y2="104.01"/>
<line class="st12" x1="390" y1="32.98" x2="390" y2="104.01"/>
</svg>
